<?xml version="1.0" standalone="no"?>
<!DOCTYPE svg PUBLIC "-//W3C//DTD SVG 20010904//EN"
 "http://www.w3.org/TR/2001/REC-SVG-20010904/DTD/svg10.dtd">
<svg version="1.0" xmlns="http://www.w3.org/2000/svg"
 width="501.000000pt" height="501.000000pt" viewBox="0 0 501.000000 501.000000"
 preserveAspectRatio="xMidYMid meet">
<metadata>
Created by potrace 1.11, written by Peter Selinger 2001-2013
</metadata>
<g transform="translate(0.000000,501.000000) scale(0.100000,-0.100000)"
fill="#000000" stroke="none">
<path d="M0 2510 l0 -2500 2505 0 2505 0 0 2500 0 2500 -2505 0 -2505 0 0
-2500z m1368 1013 l-3 -508 -47 -3 -48 -3 0 -437 0 -437 93 93 92 92 155 -155
155 -155 100 0 100 0 130 -130 130 -130 -380 -380 -380 -380 -377 0 -378 0 0
505 0 504 -102 3 -103 3 0 505 0 505 48 3 47 3 0 505 0 504 385 0 385 0 -2
-507z m2527 -3 l-510 -510 -50 0 -50 0 -250 -250 -250 -250 250 -250 250 -250
100 0 100 0 510 -510 510 -510 -570 0 -570 0 -505 505 -505 505 -100 0 -100 0
-255 255 -255 255 255 255 255 255 50 0 50 0 505 505 505 505 570 0 570 0
-510 -510z"/>
</g>
</svg>
