<?xml version="1.0" encoding="UTF-8" standalone="no"?>
<!-- Generator: Adobe Illustrator 19.0.0, SVG Export Plug-In . SVG Version: 6.00 Build 0)  -->

<svg
   version="1.1"
   id="Layer_1"
   x="0px"
   y="0px"
   viewBox="-155 379.8 45 34.2"
   xml:space="preserve"
   sodipodi:docname="logo.svg"
   inkscape:version="1.2 (dc2aedaf03, 2022-05-15)"
   width="45"
   height="34.200001"
   xmlns:inkscape="http://www.inkscape.org/namespaces/inkscape"
   xmlns:sodipodi="http://sodipodi.sourceforge.net/DTD/sodipodi-0.dtd"
   xmlns="http://www.w3.org/2000/svg"
   xmlns:svg="http://www.w3.org/2000/svg"><defs
   id="defs23" /><sodipodi:namedview
   id="namedview21"
   pagecolor="#ffffff"
   bordercolor="#000000"
   borderopacity="0.25"
   inkscape:showpageshadow="2"
   inkscape:pageopacity="0.0"
   inkscape:pagecheckerboard="0"
   inkscape:deskcolor="#d1d1d1"
   showgrid="false"
   inkscape:zoom="4.3666667"
   inkscape:cx="150"
   inkscape:cy="17.290076"
   inkscape:window-width="1842"
   inkscape:window-height="1051"
   inkscape:window-x="69"
   inkscape:window-y="-9"
   inkscape:window-maximized="1"
   inkscape:current-layer="XMLID_1_" />
<style
   type="text/css"
   id="style2">
	.st0{fill:#F7FFF1;}
</style>
<g
   id="XMLID_1_">
	
	
	<polygon
   id="XMLID_46_"
   class="st0"
   points="-146.4,391.2 -145.3,391.2 -145.3,379.8 -153.9,379.8 -153.9,391.2 -155,391.2 -155,402.6 -152.7,402.6 -152.7,414 -144.2,414 -135.6,405.5 -135.6,405.5 -138.5,402.6 -140.7,402.6 -144.3,399 -146.4,401.2 " />
	<polygon
   id="XMLID_47_"
   class="st0"
   points="-122.5,391.2 -111.1,379.8 -123.9,379.8 -135.3,391.2 -136.5,391.2 -142.2,396.9 -136.5,402.6 -134.2,402.6 -133.5,403.3 -122.8,414 -110,414 -121.4,402.6 -123.6,402.6 -129.3,396.9 -123.6,391.2 " />
	
	
	
	
	
	
	
	
	
	
	
</g>
</svg>
